<svg width="320" height="320" viewBox="0 0 320 320" fill="none" xmlns="http://www.w3.org/2000/svg">
<g clip-path="url(#clip0_909_9302)">
<path d="M320 106.667H0V117.333H320V106.667Z" fill="#EDFDFD"/>
<path d="M320 213.333H0V224H320V213.333Z" fill="#EDFDFD"/>
<path d="M112 0H101.333V320H112V0Z" fill="#EDFDFD"/>
<path d="M218.667 0H208V320H218.667V0Z" fill="#EDFDFD"/>
<path d="M266.667 106.667H160V117.333H266.667V106.667Z" fill="#4BC0C8"/>
<path d="M218.667 106.667H208V213.333H218.667V106.667Z" fill="#4BC0C8"/>
<path d="M234.88 158.11H243.247L255.352 203.255H247.778L244.934 191.944H231.738L228.96 203.255H221.816L234.88 158.11ZM243.446 186.057L238.319 165.386L233.226 186.057H243.446Z" fill="#4BC0C8"/>
<path d="M281.744 188.074L288.623 189.033C287.212 199.065 282.284 204.081 273.84 204.081C268.35 204.081 264.26 201.976 261.57 197.765C258.88 193.553 257.535 187.92 257.535 180.864C257.535 173.257 258.957 167.426 261.801 163.369C264.645 159.312 268.747 157.283 274.104 157.283C282.395 157.283 287.256 162.421 288.689 172.695L281.744 173.721C280.994 166.885 278.459 163.468 274.137 163.468C268.361 163.468 265.472 169.41 265.472 181.294C265.472 192.363 268.361 197.897 274.137 197.897C276.452 197.897 278.172 197.059 279.297 195.383C280.443 193.686 281.259 191.249 281.744 188.074Z" fill="#4BC0C8"/>
<path d="M117.431 269.452H124.906V288.171H138.201V269.452H145.676V314.596H138.201V294.488H124.906V314.596H117.431V269.452Z" fill="#6ECDDA"/>
<path d="M154.341 269.452H180.204V275.438H161.815V288.336H176.235V294.356H161.815V308.478H180.501V314.596H154.341V269.452Z" fill="#6ECDDA"/>
<path d="M160 213.333H53.3334V224H160V213.333Z" fill="#6ECDDA"/>
<path d="M112 213.333H101.333V320H112V213.333Z" fill="#6ECDDA"/>
<path d="M118.129 157.602H125.604V202.746H118.129V157.602Z" fill="#3D9298"/>
<path d="M156.957 187.566L163.836 188.525C162.425 198.557 157.497 203.573 149.053 203.573C143.563 203.573 139.473 201.467 136.783 197.256C134.093 193.045 132.748 187.411 132.748 180.356C132.748 172.749 134.17 166.917 137.014 162.86C139.858 158.803 143.959 156.775 149.317 156.775C157.608 156.775 162.469 161.912 163.902 172.187L156.957 173.212C156.207 166.377 153.672 162.96 149.35 162.96C143.574 162.96 140.685 168.902 140.685 180.786C140.685 191.854 143.574 197.388 149.35 197.388C151.665 197.388 153.385 196.551 154.51 194.875C155.656 193.177 156.472 190.741 156.957 187.566Z" fill="#3D9298"/>
<path d="M160 106.667H53.3334V117.333H160V106.667Z" fill="#3D9298"/>
<path d="M112 106.667H101.333V213.333H112V106.667Z" fill="#3D9298"/>
<path d="M257.516 292.666C257.516 300.383 256.138 306.215 253.382 310.161C250.626 314.108 246.624 316.081 241.377 316.081C236.107 316.081 232.072 314.119 229.272 310.194C226.472 306.248 225.072 300.405 225.072 292.666C225.072 284.993 226.461 279.183 229.239 275.236C232.017 271.268 236.052 269.283 241.344 269.283C246.569 269.283 250.571 271.257 253.349 275.203C256.127 279.128 257.516 284.949 257.516 292.666ZM249.678 292.666C249.678 287.308 249.05 283.097 247.793 280.032C246.558 276.945 244.386 275.402 241.277 275.402C238.169 275.402 235.997 276.945 234.762 280.032C233.527 283.119 232.91 287.33 232.91 292.666C232.91 297.913 233.516 302.103 234.729 305.234C235.942 308.364 238.158 309.93 241.377 309.93C244.397 309.93 246.536 308.42 247.793 305.399C249.05 302.356 249.678 298.112 249.678 292.666Z" fill="#B6EBF6"/>
<path d="M264.66 270.11H290.523V276.096H272.135V288.995H286.554V295.014H272.135V309.136H290.821V315.255H264.66V270.11Z" fill="#B6EBF6"/>
<path d="M266.667 213.333H160V224H266.667V213.333Z" fill="#B6EBF6"/>
<path d="M218.667 213.333H208V320H218.667V213.333Z" fill="#B6EBF6"/>
</g>
<defs>
<clipPath id="clip0_909_9302">
<rect width="320" height="320" fill="white"/>
</clipPath>
</defs>
</svg>
